<?xml version="1.0" encoding="utf-8"?>
<!-- Generator: Adobe Illustrator 26.1.0, SVG Export Plug-In . SVG Version: 6.00 Build 0)  -->
<svg version="1.1" id="Capa_1" xmlns="http://www.w3.org/2000/svg" xmlns:xlink="http://www.w3.org/1999/xlink" x="0px" y="0px"
	 viewBox="0 0 953.75 358.69" style="enable-background:new 0 0 953.75 358.69;" xml:space="preserve">
<style type="text/css">
	.st0{fill:#FF9F0F;}
	.st1{clip-path:url(#SVGID_00000177477176779285995480000007839655445151801006_);}
	.st2{fill:#540B00;}
	.st3{fill:#793100;}
	.st4{fill:#A35400;}
	.st5{fill:#D07900;}
	.st6{fill:#712375;}
	.st7{fill:url(#SVGID_00000183227589960465951310000009641024934535357848_);}
	.st8{fill:#FFFFFF;}
</style>
<g>
	<g>
		<rect x="81.3" y="342.43" class="st0" width="39.02" height="16.26"/>
		<g>
			<defs>
				<path id="SVGID_1_" d="M164.86,318.91H36.77c-11.95,0-21.73-9.78-21.73-21.73V37.35c0-11.95,9.78-21.73,21.73-21.73h128.09
					c11.95,0,21.73,9.78,21.73,21.73v259.82C186.59,309.13,176.81,318.91,164.86,318.91z"/>
			</defs>
			<clipPath id="SVGID_00000160887255835489297340000009915984587949815426_">
				<use xlink:href="#SVGID_1_"  style="overflow:visible;"/>
			</clipPath>
			<g style="clip-path:url(#SVGID_00000160887255835489297340000009915984587949815426_);">
				<g>
					<ellipse class="st2" cx="102.43" cy="2.1" rx="32.02" ry="4.87"/>
					<path class="st2" d="M165.02,24.81c0,4.48-28.02,8.11-62.58,8.11s-62.58-3.63-62.58-8.11s28.02-8.11,62.58-8.11
						S165.02,20.33,165.02,24.81z"/>
					<ellipse class="st3" cx="102.43" cy="49.14" rx="81.51" ry="9.73"/>
					<ellipse class="st4" cx="102.44" cy="78.33" rx="91.69" ry="12.97"/>
					<ellipse class="st5" cx="102.44" cy="104.28" rx="96.06" ry="16.22"/>
				</g>
				<path class="st0" d="M102.44,117.26c-55.46,0-100.43,8.71-100.43,19.46H1.72v16.22h201.14v-16.22
					C202.86,125.97,157.9,117.26,102.44,117.26z"/>
			</g>
			<g style="clip-path:url(#SVGID_00000160887255835489297340000009915984587949815426_);">
				<g>
					<path class="st6" d="M134.46,323.24c0-2.69-14.34-4.87-32.02-4.87s-32.02,2.18-32.02,4.87c0,2.69,14.34,4.87,32.02,4.87
						S134.46,325.92,134.46,323.24z"/>
					<ellipse class="st2" cx="102.43" cy="300.53" rx="62.58" ry="8.11"/>
					<ellipse class="st3" cx="102.43" cy="276.2" rx="81.51" ry="9.73"/>
					<path class="st4" d="M194.13,247.01c0-7.17-41.05-12.98-91.69-12.98s-91.69,5.81-91.69,12.98c0,7.17,41.05,12.97,91.69,12.97
						S194.13,254.17,194.13,247.01z"/>
					<ellipse class="st5" cx="102.44" cy="221.06" rx="96.06" ry="16.22"/>
					<path class="st0" d="M202.72,187.59c0.09,0.34,0.14,0.69,0.14,1.04c0,10.75-44.96,19.46-100.43,19.46
						c-55.46,0-100.43-8.71-100.43-19.46c0-0.35,0.05-0.69,0.14-1.04H202.72z"/>
				</g>
				<rect x="1.72" y="172.4" class="st0" width="201.14" height="16.22"/>
			</g>
		</g>
		<g>
			
				<linearGradient id="SVGID_00000181783109475070076220000010778296516915521160_" gradientUnits="userSpaceOnUse" x1="0" y1="251.0948" x2="201.6279" y2="251.0948">
				<stop  offset="0" style="stop-color:#FF9F0F"/>
				<stop  offset="1" style="stop-color:#EC4B46"/>
			</linearGradient>
			<path style="fill:url(#SVGID_00000181783109475070076220000010778296516915521160_);" d="M195.12,153.26v100.26
				c0,49.03-39.89,88.91-88.91,88.91H95.42c-49.03,0-88.91-39.89-88.91-88.91V153.26H0v100.26c0,52.61,42.8,95.42,95.42,95.42h10.79
				c52.61,0,95.42-42.8,95.42-95.42V153.26H195.12z"/>
		</g>
		<ellipse class="st2" cx="101.07" cy="4.87" rx="32.02" ry="4.87"/>
		<ellipse class="st2" cx="104.02" cy="323.47" rx="32.02" ry="4.87"/>
	</g>
	<g>
		<g>
			<path class="st0" d="M282.36,295.51c-0.94,0-1.73-0.81-2.38-2.43c-0.64-1.62-1.22-3.08-1.73-4.38L258.08,229h-17.72v62.23
				c0,1.3-0.34,2.3-1.03,3.01c-0.69,0.71-1.41,1.07-2.18,1.07c-0.86,0-1.61-0.36-2.25-1.07c-0.64-0.71-0.96-1.72-0.96-3.01V157.04
				c0-1.04,0.23-1.91,0.71-2.63c0.47-0.71,1.13-1.13,1.99-1.26h22.09c4.79,0,9.25,1.14,13.36,3.4c4.11,2.27,7.41,6.16,9.89,11.67
				c2.48,5.51,3.73,13.06,3.73,22.66c0,8.17-0.92,14.85-2.76,20.03c-1.84,5.19-4.32,9.11-7.45,11.77c-3.13,2.66-6.66,4.44-10.6,5.35
				l20.55,60.29c0.17,0.39,0.28,0.78,0.32,1.17c0.04,0.39,0.06,0.71,0.06,0.97c0,0.91-0.17,1.72-0.51,2.43
				c-0.34,0.71-0.77,1.33-1.28,1.85C283.52,295.25,282.96,295.51,282.36,295.51z M240.36,220.05h18.37c6.08,0,11.02-2.24,14.83-6.71
				c3.81-4.47,5.72-11.89,5.72-22.27c0-10.24-1.91-17.57-5.72-21.98c-3.81-4.41-8.76-6.61-14.83-6.61h-18.37V220.05z"/>
			<path class="st0" d="M296.62,295.31c-0.51,0-1.05-0.19-1.61-0.58c-0.56-0.39-1.01-0.88-1.35-1.46c-0.34-0.58-0.51-1.33-0.51-2.24
				c0-0.39,0.04-0.78,0.13-1.17l27.36-134.39c0.26-1.29,0.73-2.2,1.41-2.72c0.68-0.52,1.41-0.78,2.18-0.78s1.52,0.29,2.25,0.88
				c0.73,0.58,1.22,1.46,1.48,2.63l27.1,134.39c0.08,0.39,0.13,0.78,0.13,1.17c0,0.65-0.19,1.33-0.58,2.04
				c-0.39,0.71-0.86,1.26-1.41,1.65c-0.56,0.39-1.14,0.58-1.73,0.58c-0.6,0-1.14-0.22-1.61-0.68c-0.47-0.45-0.79-1.2-0.96-2.24
				l-6.29-30.92h-36.99l-6.17,30.92c-0.17,1.04-0.51,1.78-1.03,2.24C297.9,295.09,297.3,295.31,296.62,295.31z M307.4,252.53h33.39
				l-16.57-83.04L307.4,252.53z"/>
			<path class="st0" d="M371.36,295.31c-0.86,0-1.56-0.39-2.12-1.17c-0.56-0.78-0.83-1.68-0.83-2.72V157.04
				c0-1.04,0.28-1.95,0.83-2.72c0.56-0.78,1.26-1.17,2.12-1.17h22.73c4.88,0,9.29,1.36,13.23,4.08c3.94,2.72,7.04,7.04,9.31,12.93
				c2.27,5.9,3.4,13.78,3.4,23.63v60.87c0,9.85-1.14,17.73-3.4,23.63c-2.27,5.9-5.37,10.21-9.31,12.93
				c-3.94,2.72-8.35,4.08-13.23,4.08H371.36z M374.83,285.98h19.27c6.17,0,10.96-2.56,14.39-7.68c3.42-5.12,5.14-13,5.14-23.63
				v-60.87c0-10.63-1.71-18.51-5.14-23.63c-3.43-5.12-8.22-7.68-14.39-7.68h-19.27V285.98z"/>
			<path class="st0" d="M442.9,295.31c-0.86,0-1.61-0.36-2.25-1.07c-0.64-0.71-0.96-1.72-0.96-3.01V157.04
				c0-1.29,0.32-2.27,0.96-2.92c0.64-0.65,1.39-0.97,2.25-0.97c0.77,0,1.5,0.33,2.18,0.97c0.68,0.65,1.03,1.62,1.03,2.92v134.19
				c0,1.3-0.34,2.3-1.03,3.01C444.4,294.96,443.67,295.31,442.9,295.31z"/>
			<path class="st0" d="M491.32,296.48c-4.8,0-9.14-1.36-13.04-4.08c-3.9-2.72-6.98-7.03-9.25-12.93c-2.27-5.9-3.4-13.77-3.4-23.63
				v-62.04c0-9.85,1.13-17.73,3.4-23.63c2.27-5.9,5.35-10.21,9.25-12.93c3.9-2.72,8.24-4.08,13.04-4.08c4.88,0,9.29,1.36,13.23,4.08
				c3.94,2.72,7.04,7.04,9.31,12.93c2.27,5.9,3.4,13.78,3.4,23.63v62.04c0,9.86-1.14,17.73-3.4,23.63
				c-2.27,5.9-5.37,10.21-9.31,12.93C500.61,295.12,496.21,296.48,491.32,296.48z M491.32,287.15c6.08,0,10.85-2.56,14.32-7.68
				c3.47-5.12,5.2-13,5.2-23.63v-62.04c0-10.63-1.71-18.51-5.14-23.63c-3.43-5.12-8.22-7.68-14.38-7.68
				c-6.08,0-10.83,2.56-14.26,7.68c-3.43,5.12-5.14,13-5.14,23.63v62.04c0,10.63,1.71,18.51,5.14,23.63
				C480.49,284.59,485.24,287.15,491.32,287.15z"/>
			<path class="st0" d="M539.62,295.51c-0.6,0-1.2-0.16-1.8-0.49c-0.6-0.32-1.07-0.84-1.41-1.56c-0.34-0.71-0.51-1.52-0.51-2.43
				c0-0.78,0.13-1.62,0.39-2.53l39.56-116.11v-9.92h-38.79v23.92c0,1.17-0.34,2.17-1.03,3.01c-0.69,0.85-1.46,1.26-2.31,1.26
				c-0.77,0-1.48-0.42-2.12-1.26c-0.64-0.84-0.96-1.85-0.96-3.01v-29.17c0-1.04,0.3-1.98,0.9-2.82c0.6-0.84,1.28-1.26,2.05-1.26
				h45.6c0.68,0,1.37,0.42,2.05,1.26c0.68,0.84,1.03,1.78,1.03,2.82v15.36c0,0.52-0.04,1.07-0.13,1.65
				c-0.09,0.58-0.26,1.2-0.51,1.85l-39.56,117.08C541.54,294.73,540.73,295.51,539.62,295.51z"/>
			<path class="st0" d="M618.22,296.48c-4.88,0-9.27-1.36-13.17-4.08c-3.9-2.72-6.98-7.03-9.25-12.93c-2.27-5.9-3.4-13.77-3.4-23.63
				v-62.04c0-9.85,1.13-17.73,3.4-23.63c2.27-5.9,5.35-10.21,9.25-12.93c3.9-2.72,8.28-4.08,13.17-4.08c4.79,0,9.16,1.36,13.1,4.08
				c3.94,2.72,7.06,7.04,9.38,12.93c2.31,5.9,3.47,13.78,3.47,23.63v62.04c0,9.86-1.16,17.73-3.47,23.63
				c-2.31,5.9-5.44,10.21-9.38,12.93C627.38,295.12,623.01,296.48,618.22,296.48z M618.22,287.15c6.08,0,10.85-2.56,14.32-7.68
				c3.47-5.12,5.2-13,5.2-23.63v-62.04c0-10.63-1.73-18.51-5.2-23.63c-3.47-5.12-8.24-7.68-14.32-7.68
				c-6.08,0-10.83,2.56-14.26,7.68c-3.43,5.12-5.14,13-5.14,23.63v62.04c0,10.63,1.71,18.51,5.14,23.63
				C607.39,284.59,612.14,287.15,618.22,287.15z M618.35,231.52c-1.2,0-2.23-0.65-3.08-1.95c-0.86-1.29-1.28-2.85-1.28-4.67
				c0-1.81,0.43-3.34,1.28-4.57c0.85-1.23,1.88-1.85,3.08-1.85c1.2,0,2.2,0.62,3.02,1.85c0.81,1.23,1.22,2.76,1.22,4.57
				c0,1.82-0.41,3.37-1.22,4.67C620.55,230.88,619.55,231.52,618.35,231.52z"/>
			<path class="st0" d="M683.98,296.48c-4.8,0-9.16-1.33-13.1-3.99c-3.94-2.66-7.06-6.93-9.38-12.84
				c-2.31-5.9-3.47-13.64-3.47-23.24v-2.33c0-9.98,1.28-17.89,3.85-23.73c2.57-5.83,5.86-9.98,9.89-12.45
				c-3.34-2.2-6.04-5.8-8.09-10.79c-2.05-4.99-3.08-11.7-3.08-20.13c0-8.56,1.03-15.3,3.08-20.23c2.05-4.93,4.86-8.43,8.41-10.5
				c3.55-2.07,7.51-3.11,11.88-3.11c4.45,0,8.43,1.04,11.94,3.11c3.51,2.08,6.29,5.58,8.35,10.5c2.06,4.93,3.08,11.67,3.08,20.23
				c0,8.43-1.03,15.14-3.08,20.13c-2.05,4.99-4.71,8.59-7.96,10.79c4.11,2.46,7.38,6.61,9.83,12.45c2.44,5.83,3.66,13.74,3.66,23.73
				v2.33c0,9.6-1.14,17.34-3.4,23.24c-2.27,5.9-5.35,10.18-9.25,12.84C693.25,295.15,688.86,296.48,683.98,296.48z M684.11,287.54
				c6.08,0,10.81-2.59,14.19-7.78c3.38-5.18,5.07-13.09,5.07-23.73v-2.53c0-10.63-1.71-18.44-5.14-23.44
				c-3.43-4.99-8.18-7.49-14.26-7.49c-5.99,0-10.75,2.5-14.26,7.49c-3.51,4.99-5.27,12.81-5.27,23.44v2.53
				c0,10.76,1.75,18.7,5.27,23.82C673.23,284.98,678.03,287.54,684.11,287.54z M683.98,213.44c5.39,0,9.59-2.01,12.59-6.03
				c3-4.02,4.5-10.63,4.5-19.84c0-9.07-1.5-15.59-4.5-19.55c-3-3.95-7.19-5.93-12.59-5.93c-5.31,0-9.48,1.98-12.52,5.93
				c-3.04,3.96-4.56,10.47-4.56,19.55c0,9.21,1.52,15.82,4.56,19.84C674.49,211.43,678.67,213.44,683.98,213.44z"/>
			<path class="st0" d="M749.61,296.48c-4.88,0-9.27-1.36-13.17-4.08c-3.9-2.72-6.98-7.03-9.25-12.93c-2.27-5.9-3.4-13.77-3.4-23.63
				v-62.04c0-9.85,1.13-17.73,3.4-23.63c2.27-5.9,5.35-10.21,9.25-12.93c3.9-2.72,8.28-4.08,13.17-4.08c4.79,0,9.16,1.36,13.1,4.08
				c3.94,2.72,7.06,7.04,9.38,12.93c2.31,5.9,3.47,13.78,3.47,23.63v62.04c0,9.86-1.16,17.73-3.47,23.63
				c-2.31,5.9-5.44,10.21-9.38,12.93C758.77,295.12,754.4,296.48,749.61,296.48z M749.61,287.15c6.08,0,10.85-2.56,14.32-7.68
				c3.47-5.12,5.2-13,5.2-23.63v-62.04c0-10.63-1.73-18.51-5.2-23.63c-3.47-5.12-8.24-7.68-14.32-7.68
				c-6.08,0-10.83,2.56-14.26,7.68c-3.43,5.12-5.14,13-5.14,23.63v62.04c0,10.63,1.71,18.51,5.14,23.63
				C738.78,284.59,743.53,287.15,749.61,287.15z M749.74,231.52c-1.2,0-2.23-0.65-3.08-1.95c-0.86-1.29-1.28-2.85-1.28-4.67
				c0-1.81,0.43-3.34,1.28-4.57c0.85-1.23,1.88-1.85,3.08-1.85c1.2,0,2.2,0.62,3.02,1.85c0.81,1.23,1.22,2.76,1.22,4.57
				c0,1.82-0.41,3.37-1.22,4.67C751.94,230.88,750.94,231.52,749.74,231.52z"/>
		</g>
		<g>
			<path class="st8" d="M232.93,350.75c-0.59,0-1.14-0.16-1.66-0.47s-0.78-0.76-0.78-1.35v-34.37c0-0.59,0.26-1.04,0.78-1.35
				s1.07-0.47,1.66-0.47h18.51c0.66,0,1.13,0.26,1.4,0.78c0.28,0.52,0.42,1.06,0.42,1.61c0,0.66-0.16,1.24-0.47,1.74
				c-0.31,0.5-0.76,0.75-1.35,0.75H236v11.91h8.01c0.59,0,1.04,0.23,1.35,0.68c0.31,0.45,0.47,0.97,0.47,1.56
				c0,0.49-0.14,0.96-0.42,1.43c-0.28,0.47-0.75,0.7-1.4,0.7H236v11.96h15.44c0.59,0,1.04,0.24,1.35,0.73
				c0.31,0.49,0.47,1.08,0.47,1.77c0,0.56-0.14,1.09-0.42,1.61c-0.28,0.52-0.75,0.78-1.4,0.78H232.93z M239.74,307.9
				c-0.49,0-0.91-0.23-1.27-0.7c-0.36-0.47-0.55-0.94-0.55-1.43c0-0.62,0.26-1.07,0.78-1.35l6.45-3.28c0.21-0.07,0.4-0.1,0.57-0.1
				c0.52,0,0.94,0.23,1.27,0.7c0.33,0.47,0.49,0.94,0.49,1.43c0,0.66-0.28,1.13-0.83,1.4l-6.29,3.17c-0.1,0.03-0.21,0.07-0.31,0.1
				C239.95,307.89,239.85,307.9,239.74,307.9z"/>
			<path class="st8" d="M258.57,350.91c-0.49,0-1.01-0.12-1.56-0.36c-0.56-0.24-1.02-0.57-1.4-0.99c-0.38-0.42-0.57-0.87-0.57-1.35
				c0-0.35,0.12-0.71,0.36-1.09l8.94-15.39l-8.68-15.29c-0.28-0.49-0.42-0.94-0.42-1.35c0-0.49,0.17-0.92,0.52-1.3
				c0.35-0.38,0.79-0.68,1.33-0.88c0.54-0.21,1.07-0.31,1.59-0.31s0.94,0.15,1.27,0.44c0.33,0.29,0.6,0.67,0.81,1.12l7.23,13.31
				l7.23-13.31c0.24-0.45,0.54-0.82,0.88-1.12c0.35-0.29,0.75-0.44,1.2-0.44c0.52,0,1.05,0.1,1.59,0.31
				c0.54,0.21,0.99,0.5,1.35,0.88c0.36,0.38,0.55,0.81,0.55,1.3c0,0.42-0.14,0.87-0.42,1.35l-8.74,15.29l9,15.39
				c0.21,0.38,0.31,0.75,0.31,1.09c0,0.49-0.19,0.94-0.57,1.35c-0.38,0.42-0.84,0.75-1.38,0.99c-0.54,0.24-1.07,0.36-1.59,0.36
				c-0.38,0-0.73-0.13-1.04-0.39c-0.31-0.26-0.55-0.55-0.73-0.86l-7.64-13.83l-7.64,13.83c-0.17,0.31-0.41,0.6-0.7,0.86
				C259.34,350.78,258.98,350.91,258.57,350.91z"/>
			<path class="st8" d="M287.95,350.75c-0.69,0-1.33-0.16-1.9-0.47c-0.57-0.31-0.86-0.76-0.86-1.35v-34.42
				c0-0.62,0.29-1.07,0.86-1.35c0.57-0.28,1.2-0.42,1.9-0.42c0.69,0,1.33,0.14,1.9,0.42c0.57,0.28,0.86,0.73,0.86,1.35v34.42
				c0,0.59-0.29,1.04-0.86,1.35C289.27,350.6,288.64,350.75,287.95,350.75z"/>
			<path class="st8" d="M307.29,350.75c-0.69,0-1.33-0.16-1.9-0.47c-0.57-0.31-0.86-0.76-0.86-1.35v-31.15h-8.06
				c-0.55,0-0.99-0.26-1.3-0.78s-0.47-1.11-0.47-1.77c0-0.62,0.14-1.2,0.42-1.72c0.28-0.52,0.73-0.78,1.35-0.78h21.58
				c0.66,0,1.13,0.26,1.4,0.78c0.28,0.52,0.42,1.07,0.42,1.66c0,0.69-0.15,1.3-0.44,1.82c-0.29,0.52-0.75,0.78-1.38,0.78h-8.01
				v31.15c0,0.59-0.29,1.04-0.86,1.35C308.62,350.6,307.98,350.75,307.29,350.75z"/>
			<path class="st8" d="M334.33,351.06c-2.22,0-4.2-0.38-5.95-1.14c-1.75-0.76-3.14-1.99-4.16-3.69c-1.02-1.7-1.53-3.95-1.53-6.76
				v-15.13c0-2.81,0.51-5.06,1.53-6.76c1.02-1.7,2.41-2.93,4.16-3.69c1.75-0.76,3.73-1.14,5.95-1.14c2.18,0,4.16,0.38,5.93,1.14
				c1.77,0.76,3.17,1.99,4.21,3.69c1.04,1.7,1.56,3.95,1.56,6.76v15.13c0,2.81-0.52,5.06-1.56,6.76c-1.04,1.7-2.44,2.93-4.21,3.69
				C338.49,350.68,336.52,351.06,334.33,351.06z M334.33,346.17c1.91,0,3.41-0.55,4.52-1.64c1.11-1.09,1.66-2.78,1.66-5.07v-15.13
				c0-2.29-0.55-3.98-1.64-5.07c-1.09-1.09-2.61-1.64-4.55-1.64c-1.94,0-3.46,0.55-4.55,1.64c-1.09,1.09-1.64,2.78-1.64,5.07v15.13
				c0,2.29,0.55,3.98,1.64,5.07C330.87,345.63,332.39,346.17,334.33,346.17z"/>
			<path class="st8" d="M362.05,351.17c-2.25,0-4.25-0.33-5.98-0.99c-1.73-0.66-3.08-1.46-4.06-2.42c-0.97-0.95-1.46-1.86-1.46-2.73
				c0-0.42,0.11-0.85,0.34-1.3c0.23-0.45,0.52-0.84,0.88-1.17c0.36-0.33,0.75-0.49,1.17-0.49c0.48,0,0.94,0.2,1.38,0.6
				c0.43,0.4,0.96,0.88,1.59,1.43c0.62,0.55,1.4,1.04,2.34,1.46c0.94,0.42,2.13,0.62,3.59,0.62c1.25,0,2.37-0.2,3.35-0.6
				c0.99-0.4,1.77-1.01,2.34-1.82c0.57-0.81,0.86-1.85,0.86-3.09c0-1.32-0.3-2.41-0.91-3.28c-0.61-0.87-1.42-1.59-2.44-2.18
				c-1.02-0.59-2.12-1.13-3.3-1.61c-1.18-0.48-2.38-1-3.59-1.56c-1.21-0.55-2.32-1.22-3.33-2c-1.01-0.78-1.81-1.77-2.42-2.96
				s-0.91-2.69-0.91-4.5c0-1.91,0.35-3.5,1.07-4.78c0.71-1.28,1.66-2.31,2.83-3.07c1.18-0.76,2.48-1.31,3.9-1.64
				c1.42-0.33,2.83-0.49,4.21-0.49c0.87,0,1.83,0.06,2.89,0.18c1.06,0.12,2.09,0.33,3.09,0.62c1.01,0.29,1.84,0.68,2.5,1.17
				c0.66,0.49,0.99,1.07,0.99,1.77c0,0.35-0.09,0.75-0.26,1.22c-0.17,0.47-0.42,0.88-0.75,1.22c-0.33,0.35-0.75,0.52-1.27,0.52
				c-0.45,0-0.95-0.16-1.51-0.49c-0.55-0.33-1.27-0.66-2.16-0.99c-0.88-0.33-2.05-0.49-3.51-0.49c-1.25,0-2.37,0.17-3.35,0.52
				c-0.99,0.35-1.76,0.86-2.31,1.53c-0.55,0.68-0.83,1.57-0.83,2.68c0,1.11,0.3,2.02,0.91,2.73c0.61,0.71,1.41,1.32,2.42,1.82
				c1,0.5,2.11,0.98,3.3,1.43c1.2,0.45,2.39,0.98,3.59,1.59c1.2,0.61,2.31,1.34,3.33,2.21c1.02,0.87,1.84,1.97,2.44,3.3
				c0.61,1.33,0.91,2.99,0.91,4.97c0,2.5-0.51,4.57-1.53,6.21c-1.02,1.65-2.43,2.87-4.21,3.67
				C366.37,350.77,364.34,351.17,362.05,351.17z"/>
			<path class="st8" d="M379.67,355.64c-0.42,0-0.83-0.13-1.25-0.39c-0.42-0.26-0.62-0.62-0.62-1.07c0-0.24,0.05-0.47,0.16-0.68
				l1.14-2.76c-0.56-0.24-1-0.62-1.33-1.12c-0.33-0.5-0.49-1.07-0.49-1.69c0-0.87,0.3-1.6,0.91-2.21c0.61-0.61,1.33-0.91,2.16-0.91
				s1.56,0.29,2.18,0.88c0.62,0.59,0.94,1.33,0.94,2.24c0,0.1-0.02,0.26-0.05,0.47c-0.04,0.21-0.14,0.54-0.31,0.99
				c-0.17,0.45-0.43,1.11-0.78,1.98c-0.35,0.87-0.82,2.03-1.4,3.48c-0.1,0.28-0.29,0.48-0.55,0.6
				C380.12,355.58,379.88,355.64,379.67,355.64z"/>
			<path class="st8" d="M412.38,351.06c-2.22,0-4.2-0.38-5.95-1.14c-1.75-0.76-3.14-1.99-4.16-3.69c-1.02-1.7-1.53-3.95-1.53-6.76
				v-15.13c0-2.81,0.51-5.06,1.53-6.76c1.02-1.7,2.41-2.93,4.16-3.69c1.75-0.76,3.68-1.14,5.8-1.14c2.36,0,4.42,0.4,6.19,1.2
				c1.77,0.8,3.15,1.91,4.16,3.33c1,1.42,1.51,3.12,1.51,5.1c0,1.04-0.23,1.74-0.7,2.11c-0.47,0.36-1.15,0.55-2.05,0.55
				c-0.73,0-1.36-0.13-1.9-0.39c-0.54-0.26-0.82-0.74-0.86-1.43c-0.1-1-0.35-1.93-0.73-2.78c-0.38-0.85-1.01-1.53-1.87-2.03
				c-0.87-0.5-2.06-0.75-3.59-0.75c-1.94,0-3.46,0.55-4.55,1.64c-1.09,1.09-1.64,2.78-1.64,5.07v15.13c0,2.29,0.55,3.98,1.64,5.07
				c1.09,1.09,2.61,1.64,4.55,1.64c1.91,0,3.41-0.55,4.52-1.64c1.11-1.09,1.66-2.78,1.66-5.07v-4.26h-5.25
				c-0.56,0-0.99-0.23-1.3-0.68c-0.31-0.45-0.47-0.97-0.47-1.56c0-0.52,0.16-1.01,0.47-1.48c0.31-0.47,0.75-0.7,1.3-0.7h8.94
				c0.59,0,1.04,0.18,1.35,0.55c0.31,0.36,0.47,0.81,0.47,1.33v6.81c0,2.81-0.52,5.06-1.56,6.76c-1.04,1.7-2.44,2.93-4.21,3.69
				C416.54,350.68,414.57,351.06,412.38,351.06z"/>
			<path class="st8" d="M450.45,350.91c-0.45,0-0.86-0.16-1.22-0.47c-0.36-0.31-0.67-0.69-0.91-1.14l-7.64-14.87h-5.2v14.51
				c0,0.59-0.29,1.04-0.86,1.35s-1.21,0.47-1.9,0.47c-0.69,0-1.33-0.16-1.9-0.47s-0.86-0.76-0.86-1.35v-34.42
				c0-0.48,0.16-0.9,0.49-1.25c0.33-0.35,0.79-0.52,1.38-0.52h9.88c2.18,0,4.18,0.32,5.98,0.96c1.8,0.64,3.24,1.73,4.32,3.28
				c1.07,1.54,1.61,3.67,1.61,6.37c0,2.08-0.32,3.81-0.96,5.2c-0.64,1.39-1.51,2.49-2.6,3.3c-1.09,0.81-2.33,1.41-3.72,1.79
				l7.28,13.68c0.07,0.1,0.12,0.23,0.16,0.39c0.03,0.16,0.05,0.29,0.05,0.39c0,0.45-0.17,0.89-0.52,1.33
				c-0.35,0.43-0.77,0.79-1.27,1.07C451.53,350.77,451,350.91,450.45,350.91z M435.47,330h6.24c1.94,0,3.49-0.47,4.65-1.4
				c1.16-0.94,1.74-2.53,1.74-4.78c0-2.25-0.58-3.85-1.74-4.78c-1.16-0.94-2.71-1.4-4.65-1.4h-6.24V330z"/>
			<path class="st8" d="M459.39,350.75c-0.49,0-1.01-0.1-1.56-0.31s-1.01-0.48-1.35-0.81c-0.35-0.33-0.52-0.72-0.52-1.17
				c0-0.1,0.02-0.26,0.05-0.47l10.35-33.7c0.21-0.62,0.65-1.09,1.33-1.4c0.68-0.31,1.39-0.47,2.16-0.47c0.8,0,1.53,0.16,2.21,0.47
				c0.68,0.31,1.12,0.78,1.33,1.4l10.3,33.7c0.07,0.21,0.1,0.36,0.1,0.47c0,0.42-0.18,0.8-0.55,1.14c-0.36,0.35-0.82,0.62-1.35,0.83
				s-1.07,0.31-1.59,0.31c-0.45,0-0.84-0.09-1.17-0.26c-0.33-0.17-0.56-0.47-0.7-0.88l-2.13-7.38h-12.9l-2.08,7.38
				c-0.1,0.42-0.34,0.71-0.7,0.88C460.25,350.67,459.84,350.75,459.39,350.75z M464.64,337.8h10.4l-5.2-17.84L464.64,337.8z"/>
			<path class="st8" d="M490.64,350.75c-0.69,0-1.33-0.16-1.9-0.47s-0.86-0.76-0.86-1.35v-34.37c0-0.66,0.29-1.13,0.86-1.4
				c0.57-0.28,1.2-0.42,1.9-0.42c0.66,0,1.22,0.1,1.69,0.29c0.47,0.19,0.89,0.51,1.27,0.96c0.38,0.45,0.78,1.08,1.2,1.87
				l11.54,22.52v-23.87c0-0.62,0.29-1.07,0.86-1.35c0.57-0.28,1.2-0.42,1.9-0.42c0.69,0,1.33,0.14,1.9,0.42
				c0.57,0.28,0.86,0.73,0.86,1.35v34.42c0,0.59-0.29,1.04-0.86,1.35s-1.21,0.47-1.9,0.47c-0.69,0-1.32-0.17-1.87-0.52
				c-0.56-0.35-1.02-0.85-1.4-1.51l-12.43-23.66v23.87c0,0.59-0.29,1.04-0.86,1.35S491.33,350.75,490.64,350.75z"/>
			<path class="st8" d="M521.16,350.75c-0.73,0-1.32-0.17-1.77-0.52c-0.45-0.35-0.68-0.76-0.68-1.25v-34.48
				c0-0.48,0.23-0.9,0.68-1.25c0.45-0.35,1.04-0.52,1.77-0.52h9.2c2.18,0,4.17,0.38,5.95,1.14c1.79,0.76,3.19,1.99,4.21,3.69
				c1.02,1.7,1.53,3.95,1.53,6.76v14.82c0,2.81-0.51,5.06-1.53,6.76c-1.02,1.7-2.43,2.93-4.21,3.69c-1.79,0.76-3.77,1.14-5.95,1.14
				H521.16z M524.23,345.86h6.14c1.94,0,3.46-0.55,4.55-1.64c1.09-1.09,1.64-2.78,1.64-5.07v-14.82c0-2.29-0.55-3.98-1.64-5.07
				c-1.09-1.09-2.61-1.64-4.55-1.64h-6.14V345.86z"/>
			<path class="st8" d="M550.96,350.75c-0.59,0-1.14-0.16-1.66-0.47c-0.52-0.31-0.78-0.76-0.78-1.35v-34.37
				c0-0.59,0.26-1.04,0.78-1.35c0.52-0.31,1.07-0.47,1.66-0.47h18.51c0.66,0,1.13,0.26,1.4,0.78c0.28,0.52,0.42,1.06,0.42,1.61
				c0,0.66-0.16,1.24-0.47,1.74c-0.31,0.5-0.76,0.75-1.35,0.75h-15.44v11.91h8.01c0.59,0,1.04,0.23,1.35,0.68
				c0.31,0.45,0.47,0.97,0.47,1.56c0,0.49-0.14,0.96-0.42,1.43c-0.28,0.47-0.75,0.7-1.4,0.7h-8.01v11.96h15.44
				c0.59,0,1.04,0.24,1.35,0.73c0.31,0.49,0.47,1.08,0.47,1.77c0,0.56-0.14,1.09-0.42,1.61c-0.28,0.52-0.75,0.78-1.4,0.78H550.96z"
				/>
			<path class="st8" d="M585.23,351.17c-2.25,0-4.25-0.33-5.98-0.99c-1.73-0.66-3.08-1.46-4.06-2.42c-0.97-0.95-1.46-1.86-1.46-2.73
				c0-0.42,0.11-0.85,0.34-1.3c0.23-0.45,0.52-0.84,0.88-1.17c0.36-0.33,0.75-0.49,1.17-0.49c0.48,0,0.94,0.2,1.38,0.6
				c0.43,0.4,0.96,0.88,1.59,1.43c0.62,0.55,1.4,1.04,2.34,1.46c0.94,0.42,2.13,0.62,3.59,0.62c1.25,0,2.37-0.2,3.35-0.6
				c0.99-0.4,1.77-1.01,2.34-1.82c0.57-0.81,0.86-1.85,0.86-3.09c0-1.32-0.3-2.41-0.91-3.28c-0.61-0.87-1.42-1.59-2.44-2.18
				c-1.02-0.59-2.12-1.13-3.3-1.61c-1.18-0.48-2.38-1-3.59-1.56c-1.21-0.55-2.32-1.22-3.33-2c-1.01-0.78-1.81-1.77-2.42-2.96
				s-0.91-2.69-0.91-4.5c0-1.91,0.35-3.5,1.07-4.78c0.71-1.28,1.66-2.31,2.83-3.07c1.18-0.76,2.48-1.31,3.9-1.64
				c1.42-0.33,2.83-0.49,4.21-0.49c0.87,0,1.83,0.06,2.89,0.18c1.06,0.12,2.09,0.33,3.09,0.62c1.01,0.29,1.84,0.68,2.5,1.17
				c0.66,0.49,0.99,1.07,0.99,1.77c0,0.35-0.09,0.75-0.26,1.22c-0.17,0.47-0.42,0.88-0.75,1.22c-0.33,0.35-0.75,0.52-1.27,0.52
				c-0.45,0-0.95-0.16-1.51-0.49c-0.55-0.33-1.27-0.66-2.16-0.99c-0.88-0.33-2.05-0.49-3.51-0.49c-1.25,0-2.37,0.17-3.35,0.52
				c-0.99,0.35-1.76,0.86-2.31,1.53c-0.55,0.68-0.83,1.57-0.83,2.68c0,1.11,0.3,2.02,0.91,2.73c0.61,0.71,1.41,1.32,2.42,1.82
				c1,0.5,2.11,0.98,3.3,1.43c1.2,0.45,2.39,0.98,3.59,1.59c1.2,0.61,2.31,1.34,3.33,2.21c1.02,0.87,1.84,1.97,2.44,3.3
				c0.61,1.33,0.91,2.99,0.91,4.97c0,2.5-0.51,4.57-1.53,6.21c-1.02,1.65-2.43,2.87-4.21,3.67
				C589.55,350.77,587.52,351.17,585.23,351.17z"/>
			<path class="st8" d="M623.76,351.06c-2.08,0-4-0.38-5.75-1.14c-1.75-0.76-3.15-1.99-4.19-3.69c-1.04-1.7-1.56-3.95-1.56-6.76
				v-15.13c0-2.81,0.52-5.06,1.56-6.76c1.04-1.7,2.44-2.93,4.21-3.69c1.77-0.76,3.69-1.14,5.77-1.14c2.39,0,4.46,0.41,6.21,1.22
				c1.75,0.81,3.12,1.92,4.11,3.33c0.99,1.4,1.48,3.02,1.48,4.86c0,1.18-0.23,1.95-0.68,2.31c-0.45,0.36-1.14,0.55-2.08,0.55
				c-0.83,0-1.49-0.15-1.98-0.44c-0.49-0.29-0.75-0.75-0.78-1.38c-0.04-0.45-0.12-0.99-0.26-1.61s-0.41-1.24-0.81-1.85
				c-0.4-0.61-1-1.11-1.79-1.51c-0.8-0.4-1.89-0.6-3.28-0.6c-2.01,0-3.55,0.55-4.63,1.64c-1.07,1.09-1.61,2.78-1.61,5.07v15.13
				c0,2.29,0.55,3.98,1.64,5.07c1.09,1.09,2.68,1.64,4.76,1.64c1.32,0,2.37-0.2,3.15-0.6c0.78-0.4,1.36-0.9,1.74-1.51
				c0.38-0.61,0.64-1.25,0.78-1.92c0.14-0.68,0.24-1.29,0.31-1.85c0.03-0.66,0.3-1.13,0.81-1.4c0.5-0.28,1.13-0.42,1.9-0.42
				c0.97,0,1.68,0.19,2.13,0.57c0.45,0.38,0.68,1.14,0.68,2.29c0,1.87-0.49,3.54-1.48,5.02c-0.99,1.47-2.37,2.63-4.13,3.46
				C628.23,350.65,626.15,351.06,623.76,351.06z"/>
			<path class="st8" d="M643.21,350.75c-0.59,0-1.14-0.16-1.66-0.47c-0.52-0.31-0.78-0.76-0.78-1.35v-34.42
				c0-0.62,0.29-1.07,0.86-1.35c0.57-0.28,1.2-0.42,1.9-0.42c0.69,0,1.33,0.14,1.9,0.42c0.57,0.28,0.86,0.73,0.86,1.35v31.36h13.52
				c0.55,0,0.97,0.25,1.25,0.75c0.28,0.5,0.42,1.07,0.42,1.69c0,0.59-0.14,1.14-0.42,1.66s-0.69,0.78-1.25,0.78H643.21z"/>
			<path class="st8" d="M666.14,350.75c-0.49,0-1.01-0.1-1.56-0.31s-1.01-0.48-1.35-0.81c-0.35-0.33-0.52-0.72-0.52-1.17
				c0-0.1,0.02-0.26,0.05-0.47l10.35-33.7c0.21-0.62,0.65-1.09,1.33-1.4c0.68-0.31,1.39-0.47,2.16-0.47c0.8,0,1.53,0.16,2.21,0.47
				c0.68,0.31,1.12,0.78,1.33,1.4l10.3,33.7c0.07,0.21,0.1,0.36,0.1,0.47c0,0.42-0.18,0.8-0.55,1.14c-0.36,0.35-0.82,0.62-1.35,0.83
				s-1.07,0.31-1.59,0.31c-0.45,0-0.84-0.09-1.17-0.26c-0.33-0.17-0.56-0.47-0.7-0.88l-2.13-7.38h-12.9l-2.08,7.38
				c-0.1,0.42-0.34,0.71-0.7,0.88C667,350.67,666.59,350.75,666.14,350.75z M671.39,337.8h10.4l-5.2-17.84L671.39,337.8z"/>
			<path class="st8" d="M704.2,351.17c-2.25,0-4.25-0.33-5.98-0.99c-1.73-0.66-3.08-1.46-4.06-2.42c-0.97-0.95-1.46-1.86-1.46-2.73
				c0-0.42,0.11-0.85,0.34-1.3c0.23-0.45,0.52-0.84,0.88-1.17c0.36-0.33,0.75-0.49,1.17-0.49c0.48,0,0.94,0.2,1.38,0.6
				c0.43,0.4,0.96,0.88,1.59,1.43c0.62,0.55,1.4,1.04,2.34,1.46c0.94,0.42,2.13,0.62,3.59,0.62c1.25,0,2.37-0.2,3.35-0.6
				c0.99-0.4,1.77-1.01,2.34-1.82c0.57-0.81,0.86-1.85,0.86-3.09c0-1.32-0.3-2.41-0.91-3.28c-0.61-0.87-1.42-1.59-2.44-2.18
				c-1.02-0.59-2.12-1.13-3.3-1.61c-1.18-0.48-2.38-1-3.59-1.56c-1.21-0.55-2.32-1.22-3.33-2c-1.01-0.78-1.81-1.77-2.42-2.96
				s-0.91-2.69-0.91-4.5c0-1.91,0.35-3.5,1.07-4.78c0.71-1.28,1.66-2.31,2.83-3.07c1.18-0.76,2.48-1.31,3.9-1.64
				c1.42-0.33,2.83-0.49,4.21-0.49c0.87,0,1.83,0.06,2.89,0.18c1.06,0.12,2.09,0.33,3.09,0.62c1.01,0.29,1.84,0.68,2.5,1.17
				c0.66,0.49,0.99,1.07,0.99,1.77c0,0.35-0.09,0.75-0.26,1.22c-0.17,0.47-0.42,0.88-0.75,1.22c-0.33,0.35-0.75,0.52-1.27,0.52
				c-0.45,0-0.95-0.16-1.51-0.49c-0.55-0.33-1.27-0.66-2.16-0.99c-0.88-0.33-2.05-0.49-3.51-0.49c-1.25,0-2.37,0.17-3.35,0.52
				c-0.99,0.35-1.76,0.86-2.31,1.53c-0.55,0.68-0.83,1.57-0.83,2.68c0,1.11,0.3,2.02,0.91,2.73c0.61,0.71,1.41,1.32,2.42,1.82
				c1,0.5,2.11,0.98,3.3,1.43c1.2,0.45,2.39,0.98,3.59,1.59c1.2,0.61,2.31,1.34,3.33,2.21c1.02,0.87,1.84,1.97,2.44,3.3
				c0.61,1.33,0.91,2.99,0.91,4.97c0,2.5-0.51,4.57-1.53,6.21c-1.02,1.65-2.43,2.87-4.21,3.67
				C708.52,350.77,706.49,351.17,704.2,351.17z"/>
			<path class="st8" d="M723.96,350.75c-0.69,0-1.33-0.16-1.9-0.47s-0.86-0.76-0.86-1.35v-34.42c0-0.62,0.29-1.07,0.86-1.35
				c0.57-0.28,1.2-0.42,1.9-0.42c0.69,0,1.33,0.14,1.9,0.42c0.57,0.28,0.86,0.73,0.86,1.35v34.42c0,0.59-0.29,1.04-0.86,1.35
				S724.65,350.75,723.96,350.75z"/>
			<path class="st8" d="M744.71,351.06c-2.08,0-4-0.38-5.75-1.14c-1.75-0.76-3.15-1.99-4.19-3.69c-1.04-1.7-1.56-3.95-1.56-6.76
				v-15.13c0-2.81,0.52-5.06,1.56-6.76c1.04-1.7,2.44-2.93,4.21-3.69c1.77-0.76,3.69-1.14,5.77-1.14c2.39,0,4.46,0.41,6.21,1.22
				c1.75,0.81,3.12,1.92,4.11,3.33c0.99,1.4,1.48,3.02,1.48,4.86c0,1.18-0.23,1.95-0.68,2.31c-0.45,0.36-1.14,0.55-2.08,0.55
				c-0.83,0-1.49-0.15-1.98-0.44c-0.49-0.29-0.75-0.75-0.78-1.38c-0.04-0.45-0.12-0.99-0.26-1.61s-0.41-1.24-0.81-1.85
				c-0.4-0.61-1-1.11-1.79-1.51c-0.8-0.4-1.89-0.6-3.28-0.6c-2.01,0-3.55,0.55-4.63,1.64c-1.07,1.09-1.61,2.78-1.61,5.07v15.13
				c0,2.29,0.55,3.98,1.64,5.07c1.09,1.09,2.68,1.64,4.76,1.64c1.32,0,2.37-0.2,3.15-0.6c0.78-0.4,1.36-0.9,1.74-1.51
				c0.38-0.61,0.64-1.25,0.78-1.92c0.14-0.68,0.24-1.29,0.31-1.85c0.03-0.66,0.3-1.13,0.81-1.4c0.5-0.28,1.13-0.42,1.9-0.42
				c0.97,0,1.68,0.19,2.13,0.57c0.45,0.38,0.68,1.14,0.68,2.29c0,1.87-0.49,3.54-1.48,5.02c-0.99,1.47-2.37,2.63-4.13,3.46
				C749.18,350.65,747.1,351.06,744.71,351.06z"/>
			<path class="st8" d="M772.99,351.06c-2.22,0-4.2-0.38-5.95-1.14c-1.75-0.76-3.14-1.99-4.16-3.69c-1.02-1.7-1.53-3.95-1.53-6.76
				v-15.13c0-2.81,0.51-5.06,1.53-6.76c1.02-1.7,2.41-2.93,4.16-3.69c1.75-0.76,3.74-1.14,5.95-1.14c2.18,0,4.16,0.38,5.93,1.14
				c1.77,0.76,3.17,1.99,4.21,3.69c1.04,1.7,1.56,3.95,1.56,6.76v15.13c0,2.81-0.52,5.06-1.56,6.76c-1.04,1.7-2.44,2.93-4.21,3.69
				C777.15,350.68,775.18,351.06,772.99,351.06z M772.99,346.17c1.91,0,3.41-0.55,4.52-1.64c1.11-1.09,1.66-2.78,1.66-5.07v-15.13
				c0-2.29-0.55-3.98-1.64-5.07c-1.09-1.09-2.61-1.64-4.55-1.64s-3.46,0.55-4.55,1.64c-1.09,1.09-1.64,2.78-1.64,5.07v15.13
				c0,2.29,0.55,3.98,1.64,5.07C769.54,345.63,771.05,346.17,772.99,346.17z"/>
			<path class="st8" d="M800.71,351.17c-2.25,0-4.25-0.33-5.98-0.99c-1.73-0.66-3.08-1.46-4.06-2.42c-0.97-0.95-1.46-1.86-1.46-2.73
				c0-0.42,0.11-0.85,0.34-1.3c0.23-0.45,0.52-0.84,0.88-1.17c0.36-0.33,0.75-0.49,1.17-0.49c0.48,0,0.94,0.2,1.38,0.6
				c0.43,0.4,0.96,0.88,1.59,1.43c0.62,0.55,1.4,1.04,2.34,1.46c0.94,0.42,2.13,0.62,3.59,0.62c1.25,0,2.37-0.2,3.35-0.6
				c0.99-0.4,1.77-1.01,2.34-1.82c0.57-0.81,0.86-1.85,0.86-3.09c0-1.32-0.3-2.41-0.91-3.28c-0.61-0.87-1.42-1.59-2.44-2.18
				c-1.02-0.59-2.12-1.13-3.3-1.61c-1.18-0.48-2.38-1-3.59-1.56c-1.21-0.55-2.32-1.22-3.33-2c-1.01-0.78-1.81-1.77-2.42-2.96
				s-0.91-2.69-0.91-4.5c0-1.91,0.35-3.5,1.07-4.78c0.71-1.28,1.66-2.31,2.83-3.07c1.18-0.76,2.48-1.31,3.9-1.64
				c1.42-0.33,2.83-0.49,4.21-0.49c0.87,0,1.83,0.06,2.89,0.18c1.06,0.12,2.09,0.33,3.09,0.62c1.01,0.29,1.84,0.68,2.5,1.17
				c0.66,0.49,0.99,1.07,0.99,1.77c0,0.35-0.09,0.75-0.26,1.22c-0.17,0.47-0.42,0.88-0.75,1.22c-0.33,0.35-0.75,0.52-1.27,0.52
				c-0.45,0-0.95-0.16-1.51-0.49c-0.55-0.33-1.27-0.66-2.16-0.99c-0.88-0.33-2.05-0.49-3.51-0.49c-1.25,0-2.37,0.17-3.35,0.52
				c-0.99,0.35-1.76,0.86-2.31,1.53c-0.55,0.68-0.83,1.57-0.83,2.68c0,1.11,0.3,2.02,0.91,2.73c0.61,0.71,1.41,1.32,2.42,1.82
				c1,0.5,2.11,0.98,3.3,1.43c1.2,0.45,2.39,0.98,3.59,1.59c1.2,0.61,2.31,1.34,3.33,2.21c1.02,0.87,1.84,1.97,2.44,3.3
				c0.61,1.33,0.91,2.99,0.91,4.97c0,2.5-0.51,4.57-1.53,6.21c-1.02,1.65-2.43,2.87-4.21,3.67
				C805.03,350.77,803,351.17,800.71,351.17z"/>
			<path class="st8" d="M839.14,350.75c-0.69,0-1.33-0.16-1.9-0.47c-0.57-0.31-0.86-0.76-0.86-1.35v-13.16
				c0-0.21-0.05-0.4-0.16-0.57l-10.76-19.4c-0.07-0.17-0.11-0.32-0.13-0.44c-0.02-0.12-0.03-0.23-0.03-0.34
				c0-0.45,0.19-0.84,0.57-1.17c0.38-0.33,0.84-0.6,1.38-0.81c0.54-0.21,1.05-0.31,1.53-0.31c0.45,0,0.81,0.1,1.07,0.31
				s0.49,0.52,0.7,0.94l8.58,16.48l8.53-16.48c0.24-0.42,0.49-0.73,0.75-0.94c0.26-0.21,0.62-0.31,1.07-0.31c0.49,0,1,0.1,1.53,0.31
				c0.54,0.21,1,0.48,1.38,0.81c0.38,0.33,0.57,0.72,0.57,1.17c0,0.1-0.01,0.22-0.03,0.34c-0.02,0.12-0.08,0.27-0.18,0.44
				l-10.71,19.4c-0.1,0.17-0.16,0.36-0.16,0.57v13.16c0,0.59-0.29,1.04-0.86,1.35C840.46,350.6,839.83,350.75,839.14,350.75z"/>
			<path class="st8" d="M870.18,350.75c-0.69,0-1.33-0.16-1.9-0.47s-0.86-0.76-0.86-1.35V315.5c0-1.04,0.29-1.76,0.86-2.16
				c0.57-0.4,1.2-0.6,1.9-0.6c0.66,0,1.23,0.1,1.72,0.29c0.48,0.19,0.94,0.51,1.35,0.96c0.42,0.45,0.85,1.08,1.3,1.87l7.28,13.78
				l7.38-13.78c0.45-0.8,0.88-1.42,1.27-1.87c0.4-0.45,0.84-0.77,1.33-0.96c0.48-0.19,1.06-0.29,1.72-0.29c0.73,0,1.37,0.2,1.92,0.6
				c0.55,0.4,0.83,1.12,0.83,2.16v33.44c0,0.59-0.29,1.04-0.86,1.35c-0.57,0.31-1.2,0.47-1.9,0.47c-0.69,0-1.33-0.16-1.9-0.47
				c-0.57-0.31-0.86-0.76-0.86-1.35v-24.96l-6.97,12.9c-0.28,0.45-0.59,0.77-0.94,0.96c-0.35,0.19-0.71,0.29-1.09,0.29
				c-0.31,0-0.64-0.09-0.99-0.26c-0.35-0.17-0.64-0.5-0.88-0.99l-6.97-13.21v25.27c0,0.59-0.29,1.04-0.86,1.35
				S870.87,350.75,870.18,350.75z"/>
			<path class="st8" d="M903.83,350.75c-0.49,0-1.01-0.1-1.56-0.31s-1.01-0.48-1.35-0.81c-0.35-0.33-0.52-0.72-0.52-1.17
				c0-0.1,0.02-0.26,0.05-0.47l10.35-33.7c0.21-0.62,0.65-1.09,1.33-1.4c0.68-0.31,1.39-0.47,2.16-0.47c0.8,0,1.53,0.16,2.21,0.47
				c0.68,0.31,1.12,0.78,1.33,1.4l10.3,33.7c0.07,0.21,0.1,0.36,0.1,0.47c0,0.42-0.18,0.8-0.55,1.14c-0.36,0.35-0.82,0.62-1.35,0.83
				s-1.07,0.31-1.59,0.31c-0.45,0-0.84-0.09-1.17-0.26c-0.33-0.17-0.56-0.47-0.7-0.88l-2.13-7.38h-12.9l-2.08,7.38
				c-0.1,0.42-0.34,0.71-0.7,0.88C904.68,350.67,904.28,350.75,903.83,350.75z M909.08,337.8h10.4l-5.2-17.84L909.08,337.8z
				 M912.41,307.9c-0.49,0-0.91-0.23-1.27-0.7c-0.36-0.47-0.55-0.94-0.55-1.43c0-0.62,0.26-1.07,0.78-1.35l6.45-3.28
				c0.21-0.07,0.4-0.1,0.57-0.1c0.52,0,0.94,0.23,1.27,0.7c0.33,0.47,0.49,0.94,0.49,1.43c0,0.66-0.28,1.13-0.83,1.4l-6.29,3.17
				c-0.1,0.03-0.21,0.07-0.31,0.1C912.61,307.89,912.51,307.9,912.41,307.9z"/>
			<path class="st8" d="M941.89,351.17c-2.25,0-4.25-0.33-5.98-0.99c-1.73-0.66-3.08-1.46-4.06-2.42c-0.97-0.95-1.46-1.86-1.46-2.73
				c0-0.42,0.11-0.85,0.34-1.3c0.23-0.45,0.52-0.84,0.88-1.17c0.36-0.33,0.75-0.49,1.17-0.49c0.48,0,0.94,0.2,1.38,0.6
				c0.43,0.4,0.96,0.88,1.59,1.43c0.62,0.55,1.4,1.04,2.34,1.46c0.94,0.42,2.13,0.62,3.59,0.62c1.25,0,2.37-0.2,3.35-0.6
				c0.99-0.4,1.77-1.01,2.34-1.82c0.57-0.81,0.86-1.85,0.86-3.09c0-1.32-0.3-2.41-0.91-3.28c-0.61-0.87-1.42-1.59-2.44-2.18
				c-1.02-0.59-2.12-1.13-3.3-1.61c-1.18-0.48-2.38-1-3.59-1.56c-1.21-0.55-2.32-1.22-3.33-2c-1.01-0.78-1.81-1.77-2.42-2.96
				s-0.91-2.69-0.91-4.5c0-1.91,0.35-3.5,1.07-4.78c0.71-1.28,1.66-2.31,2.83-3.07c1.18-0.76,2.48-1.31,3.9-1.64
				c1.42-0.33,2.83-0.49,4.21-0.49c0.87,0,1.83,0.06,2.89,0.18c1.06,0.12,2.09,0.33,3.09,0.62c1.01,0.29,1.84,0.68,2.5,1.17
				c0.66,0.49,0.99,1.07,0.99,1.77c0,0.35-0.09,0.75-0.26,1.22c-0.17,0.47-0.42,0.88-0.75,1.22c-0.33,0.35-0.75,0.52-1.27,0.52
				c-0.45,0-0.95-0.16-1.51-0.49c-0.55-0.33-1.27-0.66-2.16-0.99c-0.88-0.33-2.05-0.49-3.51-0.49c-1.25,0-2.37,0.17-3.35,0.52
				c-0.99,0.35-1.76,0.86-2.31,1.53c-0.55,0.68-0.83,1.57-0.83,2.68c0,1.11,0.3,2.02,0.91,2.73c0.61,0.71,1.41,1.32,2.42,1.82
				c1,0.5,2.11,0.98,3.3,1.43c1.2,0.45,2.39,0.98,3.59,1.59c1.2,0.61,2.31,1.34,3.33,2.21c1.02,0.87,1.84,1.97,2.44,3.3
				c0.61,1.33,0.91,2.99,0.91,4.97c0,2.5-0.51,4.57-1.53,6.21c-1.02,1.65-2.43,2.87-4.21,3.67
				C946.21,350.77,944.18,351.17,941.89,351.17z"/>
		</g>
	</g>
</g>
</svg>
